<mxfile host="app.diagrams.net" modified="2023-09-07T08:19:02.912Z" agent="Mozilla/5.0 (Windows NT 10.0; Win64; x64) AppleWebKit/537.36 (KHTML, like Gecko) Chrome/116.0.0.0 Safari/537.36" etag="lhzbQHbEok7AwJCAIp49" version="21.7.2" type="device">
  <diagram name="Page-1" id="2YBvvXClWsGukQMizWep">
    <mxGraphModel dx="2950" dy="1132" grid="1" gridSize="10" guides="1" tooltips="1" connect="1" arrows="1" fold="1" page="1" pageScale="1" pageWidth="850" pageHeight="1100" math="0" shadow="0">
      <root>
        <mxCell id="0" />
        <mxCell id="1" parent="0" />
        <mxCell id="S92pzV4RPVKKhVK4Yw1S-98" value="" style="rounded=0;whiteSpace=wrap;html=1;dashed=1;dashPattern=8 8;fillColor=none;align=left;" vertex="1" parent="1">
          <mxGeometry x="-60" y="609" width="920" height="441" as="geometry" />
        </mxCell>
        <mxCell id="S92pzV4RPVKKhVK4Yw1S-22" value="" style="rounded=0;whiteSpace=wrap;html=1;dashed=1;dashPattern=8 8;fillColor=none;align=left;" vertex="1" parent="1">
          <mxGeometry x="-60" y="260" width="920" height="330" as="geometry" />
        </mxCell>
        <mxCell id="S92pzV4RPVKKhVK4Yw1S-9" value="" style="rounded=0;whiteSpace=wrap;html=1;dashed=1;dashPattern=8 8;fillColor=none;align=left;" vertex="1" parent="1">
          <mxGeometry x="-60" y="90" width="920" height="160" as="geometry" />
        </mxCell>
        <mxCell id="aM9ryv3xv72pqoxQDRHE-1" value="Upload API" style="shape=umlLifeline;perimeter=lifelinePerimeter;whiteSpace=wrap;html=1;container=0;dropTarget=0;collapsible=0;recursiveResize=0;outlineConnect=0;portConstraint=eastwest;newEdgeStyle={&quot;edgeStyle&quot;:&quot;elbowEdgeStyle&quot;,&quot;elbow&quot;:&quot;vertical&quot;,&quot;curved&quot;:0,&quot;rounded&quot;:0};" parent="1" vertex="1">
          <mxGeometry x="120" y="40" width="100" height="1020" as="geometry" />
        </mxCell>
        <mxCell id="S92pzV4RPVKKhVK4Yw1S-33" value="" style="html=1;points=[[0,0,0,0,5],[0,1,0,0,-5],[1,0,0,0,5],[1,1,0,0,-5]];perimeter=orthogonalPerimeter;outlineConnect=0;targetShapes=umlLifeline;portConstraint=eastwest;newEdgeStyle={&quot;curved&quot;:0,&quot;rounded&quot;:0};" vertex="1" parent="aM9ryv3xv72pqoxQDRHE-1">
          <mxGeometry x="45" y="70" width="10" height="100" as="geometry" />
        </mxCell>
        <mxCell id="S92pzV4RPVKKhVK4Yw1S-37" value="" style="html=1;points=[[0,0,0,0,5],[0,1,0,0,-5],[1,0,0,0,5],[1,1,0,0,-5]];perimeter=orthogonalPerimeter;outlineConnect=0;targetShapes=umlLifeline;portConstraint=eastwest;newEdgeStyle={&quot;curved&quot;:0,&quot;rounded&quot;:0};" vertex="1" parent="aM9ryv3xv72pqoxQDRHE-1">
          <mxGeometry x="45" y="238.5" width="10" height="100" as="geometry" />
        </mxCell>
        <mxCell id="S92pzV4RPVKKhVK4Yw1S-38" value="success &amp;lt;upload id&amp;gt;" style="html=1;verticalAlign=bottom;endArrow=open;dashed=1;endSize=8;curved=0;rounded=0;exitX=0;exitY=1;exitDx=0;exitDy=-5;" edge="1" parent="aM9ryv3xv72pqoxQDRHE-1" target="S92pzV4RPVKKhVK4Yw1S-11">
          <mxGeometry relative="1" as="geometry">
            <mxPoint x="-50" y="334.5" as="targetPoint" />
            <mxPoint x="45" y="334.4999999999999" as="sourcePoint" />
          </mxGeometry>
        </mxCell>
        <mxCell id="aM9ryv3xv72pqoxQDRHE-5" value="S3" style="shape=umlLifeline;perimeter=lifelinePerimeter;whiteSpace=wrap;html=1;container=0;dropTarget=0;collapsible=0;recursiveResize=0;outlineConnect=0;portConstraint=eastwest;newEdgeStyle={&quot;edgeStyle&quot;:&quot;elbowEdgeStyle&quot;,&quot;elbow&quot;:&quot;vertical&quot;,&quot;curved&quot;:0,&quot;rounded&quot;:0};" parent="1" vertex="1">
          <mxGeometry x="355" y="40" width="100" height="1010" as="geometry" />
        </mxCell>
        <mxCell id="S92pzV4RPVKKhVK4Yw1S-14" value="" style="html=1;points=[[0,0,0,0,5],[0,1,0,0,-5],[1,0,0,0,5],[1,1,0,0,-5]];perimeter=orthogonalPerimeter;outlineConnect=0;targetShapes=umlLifeline;portConstraint=eastwest;newEdgeStyle={&quot;curved&quot;:0,&quot;rounded&quot;:0};" vertex="1" parent="aM9ryv3xv72pqoxQDRHE-5">
          <mxGeometry x="45" y="77" width="10" height="33" as="geometry" />
        </mxCell>
        <mxCell id="S92pzV4RPVKKhVK4Yw1S-81" value="" style="html=1;points=[[0,0,0,0,5],[0,1,0,0,-5],[1,0,0,0,5],[1,1,0,0,-5]];perimeter=orthogonalPerimeter;outlineConnect=0;targetShapes=umlLifeline;portConstraint=eastwest;newEdgeStyle={&quot;curved&quot;:0,&quot;rounded&quot;:0};" vertex="1" parent="aM9ryv3xv72pqoxQDRHE-5">
          <mxGeometry x="46" y="750" width="10" height="50" as="geometry" />
        </mxCell>
        <mxCell id="S92pzV4RPVKKhVK4Yw1S-2" value="Dynamo DB" style="shape=umlLifeline;perimeter=lifelinePerimeter;whiteSpace=wrap;html=1;container=0;dropTarget=0;collapsible=0;recursiveResize=0;outlineConnect=0;portConstraint=eastwest;newEdgeStyle={&quot;edgeStyle&quot;:&quot;elbowEdgeStyle&quot;,&quot;elbow&quot;:&quot;vertical&quot;,&quot;curved&quot;:0,&quot;rounded&quot;:0};" vertex="1" parent="1">
          <mxGeometry x="480" y="40" width="100" height="1010" as="geometry" />
        </mxCell>
        <mxCell id="S92pzV4RPVKKhVK4Yw1S-17" value="" style="html=1;points=[[0,0,0,0,5],[0,1,0,0,-5],[1,0,0,0,5],[1,1,0,0,-5]];perimeter=orthogonalPerimeter;outlineConnect=0;targetShapes=umlLifeline;portConstraint=eastwest;newEdgeStyle={&quot;curved&quot;:0,&quot;rounded&quot;:0};" vertex="1" parent="S92pzV4RPVKKhVK4Yw1S-2">
          <mxGeometry x="45" y="130" width="10" height="33" as="geometry" />
        </mxCell>
        <mxCell id="S92pzV4RPVKKhVK4Yw1S-87" value="" style="html=1;points=[[0,0,0,0,5],[0,1,0,0,-5],[1,0,0,0,5],[1,1,0,0,-5]];perimeter=orthogonalPerimeter;outlineConnect=0;targetShapes=umlLifeline;portConstraint=eastwest;newEdgeStyle={&quot;curved&quot;:0,&quot;rounded&quot;:0};" vertex="1" parent="S92pzV4RPVKKhVK4Yw1S-2">
          <mxGeometry x="-79" y="870" width="10" height="50" as="geometry" />
        </mxCell>
        <mxCell id="S92pzV4RPVKKhVK4Yw1S-88" value="put image &amp;lt;image id&amp;gt;" style="html=1;verticalAlign=bottom;endArrow=block;curved=0;rounded=0;entryX=1;entryY=0;entryDx=0;entryDy=5;" edge="1" parent="S92pzV4RPVKKhVK4Yw1S-2" target="S92pzV4RPVKKhVK4Yw1S-87">
          <mxGeometry relative="1" as="geometry">
            <mxPoint x="285" y="875" as="sourcePoint" />
          </mxGeometry>
        </mxCell>
        <mxCell id="S92pzV4RPVKKhVK4Yw1S-89" value="success" style="html=1;verticalAlign=bottom;endArrow=open;dashed=1;endSize=8;curved=0;rounded=0;exitX=1;exitY=1;exitDx=0;exitDy=-5;" edge="1" parent="S92pzV4RPVKKhVK4Yw1S-2" source="S92pzV4RPVKKhVK4Yw1S-87">
          <mxGeometry relative="1" as="geometry">
            <mxPoint x="285" y="915" as="targetPoint" />
          </mxGeometry>
        </mxCell>
        <mxCell id="S92pzV4RPVKKhVK4Yw1S-4" value="SQS Processing&lt;br&gt;Queue" style="shape=umlLifeline;perimeter=lifelinePerimeter;whiteSpace=wrap;html=1;container=0;dropTarget=0;collapsible=0;recursiveResize=0;outlineConnect=0;portConstraint=eastwest;newEdgeStyle={&quot;edgeStyle&quot;:&quot;elbowEdgeStyle&quot;,&quot;elbow&quot;:&quot;vertical&quot;,&quot;curved&quot;:0,&quot;rounded&quot;:0};" vertex="1" parent="1">
          <mxGeometry x="600" y="40" width="100" height="1010" as="geometry" />
        </mxCell>
        <mxCell id="S92pzV4RPVKKhVK4Yw1S-24" value="" style="html=1;points=[[0,0,0,0,5],[0,1,0,0,-5],[1,0,0,0,5],[1,1,0,0,-5]];perimeter=orthogonalPerimeter;outlineConnect=0;targetShapes=umlLifeline;portConstraint=eastwest;newEdgeStyle={&quot;curved&quot;:0,&quot;rounded&quot;:0};" vertex="1" parent="S92pzV4RPVKKhVK4Yw1S-4">
          <mxGeometry x="-200" y="247" width="10" height="33" as="geometry" />
        </mxCell>
        <mxCell id="S92pzV4RPVKKhVK4Yw1S-25" value="" style="html=1;points=[[0,0,0,0,5],[0,1,0,0,-5],[1,0,0,0,5],[1,1,0,0,-5]];perimeter=orthogonalPerimeter;outlineConnect=0;targetShapes=umlLifeline;portConstraint=eastwest;newEdgeStyle={&quot;curved&quot;:0,&quot;rounded&quot;:0};" vertex="1" parent="S92pzV4RPVKKhVK4Yw1S-4">
          <mxGeometry x="-75" y="300" width="10" height="33" as="geometry" />
        </mxCell>
        <mxCell id="S92pzV4RPVKKhVK4Yw1S-68" value="" style="html=1;points=[[0,0,0,0,5],[0,1,0,0,-5],[1,0,0,0,5],[1,1,0,0,-5]];perimeter=orthogonalPerimeter;outlineConnect=0;targetShapes=umlLifeline;portConstraint=eastwest;newEdgeStyle={&quot;curved&quot;:0,&quot;rounded&quot;:0};" vertex="1" parent="S92pzV4RPVKKhVK4Yw1S-4">
          <mxGeometry x="45" y="630" width="10" height="33" as="geometry" />
        </mxCell>
        <mxCell id="S92pzV4RPVKKhVK4Yw1S-77" value="" style="html=1;points=[[0,0,0,0,5],[0,1,0,0,-5],[1,0,0,0,5],[1,1,0,0,-5]];perimeter=orthogonalPerimeter;outlineConnect=0;targetShapes=umlLifeline;portConstraint=eastwest;newEdgeStyle={&quot;curved&quot;:0,&quot;rounded&quot;:0};" vertex="1" parent="S92pzV4RPVKKhVK4Yw1S-4">
          <mxGeometry x="45" y="680" width="10" height="50" as="geometry" />
        </mxCell>
        <mxCell id="S92pzV4RPVKKhVK4Yw1S-11" value="" style="shape=umlLifeline;perimeter=lifelinePerimeter;whiteSpace=wrap;html=1;container=1;dropTarget=0;collapsible=0;recursiveResize=0;outlineConnect=0;portConstraint=eastwest;newEdgeStyle={&quot;curved&quot;:0,&quot;rounded&quot;:0};participant=umlActor;" vertex="1" parent="1">
          <mxGeometry x="35" y="40" width="20" height="1020" as="geometry" />
        </mxCell>
        <mxCell id="S92pzV4RPVKKhVK4Yw1S-15" value="upload image" style="html=1;verticalAlign=bottom;endArrow=block;curved=0;rounded=0;entryX=0;entryY=0;entryDx=0;entryDy=5;" edge="1" target="S92pzV4RPVKKhVK4Yw1S-14" parent="1">
          <mxGeometry relative="1" as="geometry">
            <mxPoint x="175" y="122" as="sourcePoint" />
          </mxGeometry>
        </mxCell>
        <mxCell id="S92pzV4RPVKKhVK4Yw1S-16" value="callback" style="html=1;verticalAlign=bottom;endArrow=open;dashed=1;endSize=8;curved=0;rounded=0;exitX=0;exitY=1;exitDx=0;exitDy=-5;" edge="1" source="S92pzV4RPVKKhVK4Yw1S-14" parent="1">
          <mxGeometry relative="1" as="geometry">
            <mxPoint x="175" y="145" as="targetPoint" />
          </mxGeometry>
        </mxCell>
        <mxCell id="S92pzV4RPVKKhVK4Yw1S-18" value="store metadata" style="html=1;verticalAlign=bottom;endArrow=block;curved=0;rounded=0;entryX=0;entryY=0;entryDx=0;entryDy=5;" edge="1" parent="1" target="S92pzV4RPVKKhVK4Yw1S-17">
          <mxGeometry relative="1" as="geometry">
            <mxPoint x="175" y="175" as="sourcePoint" />
          </mxGeometry>
        </mxCell>
        <mxCell id="S92pzV4RPVKKhVK4Yw1S-19" value="callback" style="html=1;verticalAlign=bottom;endArrow=open;dashed=1;endSize=8;curved=0;rounded=0;exitX=0;exitY=1;exitDx=0;exitDy=-5;" edge="1" parent="1" source="S92pzV4RPVKKhVK4Yw1S-17">
          <mxGeometry relative="1" as="geometry">
            <mxPoint x="175" y="198" as="targetPoint" />
          </mxGeometry>
        </mxCell>
        <mxCell id="S92pzV4RPVKKhVK4Yw1S-21" value="Single upload" style="text;html=1;align=center;verticalAlign=middle;resizable=0;points=[];autosize=1;strokeColor=none;fillColor=none;" vertex="1" parent="1">
          <mxGeometry x="-180" y="155" width="100" height="30" as="geometry" />
        </mxCell>
        <mxCell id="S92pzV4RPVKKhVK4Yw1S-32" value="Async bulk (multipart) &lt;br&gt;upload" style="text;html=1;align=center;verticalAlign=middle;resizable=0;points=[];autosize=1;strokeColor=none;fillColor=none;" vertex="1" parent="1">
          <mxGeometry x="-200" y="360" width="140" height="40" as="geometry" />
        </mxCell>
        <mxCell id="S92pzV4RPVKKhVK4Yw1S-35" value="success &amp;lt;image id&amp;gt;" style="html=1;verticalAlign=bottom;endArrow=open;dashed=1;endSize=8;curved=0;rounded=0;exitX=0;exitY=1;exitDx=0;exitDy=-5;" edge="1" source="S92pzV4RPVKKhVK4Yw1S-33" parent="1" target="S92pzV4RPVKKhVK4Yw1S-11">
          <mxGeometry relative="1" as="geometry">
            <mxPoint x="95" y="192" as="targetPoint" />
          </mxGeometry>
        </mxCell>
        <mxCell id="S92pzV4RPVKKhVK4Yw1S-34" value="upload image" style="html=1;verticalAlign=bottom;endArrow=block;curved=0;rounded=0;entryX=0;entryY=0;entryDx=0;entryDy=5;" edge="1" target="S92pzV4RPVKKhVK4Yw1S-33" parent="1" source="S92pzV4RPVKKhVK4Yw1S-11">
          <mxGeometry relative="1" as="geometry">
            <mxPoint x="95" y="122" as="sourcePoint" />
          </mxGeometry>
        </mxCell>
        <mxCell id="S92pzV4RPVKKhVK4Yw1S-39" value="initiate upload" style="html=1;verticalAlign=bottom;endArrow=block;curved=0;rounded=0;entryX=0;entryY=0;entryDx=0;entryDy=5;" edge="1" parent="1" target="S92pzV4RPVKKhVK4Yw1S-37" source="S92pzV4RPVKKhVK4Yw1S-11">
          <mxGeometry relative="1" as="geometry">
            <mxPoint x="70" y="283.5" as="sourcePoint" />
          </mxGeometry>
        </mxCell>
        <mxCell id="S92pzV4RPVKKhVK4Yw1S-28" value="callback" style="html=1;verticalAlign=bottom;endArrow=open;dashed=1;endSize=8;curved=0;rounded=0;exitX=0;exitY=1;exitDx=0;exitDy=-5;" edge="1" parent="1" source="S92pzV4RPVKKhVK4Yw1S-24" target="S92pzV4RPVKKhVK4Yw1S-37">
          <mxGeometry relative="1" as="geometry">
            <mxPoint x="180" y="315" as="targetPoint" />
          </mxGeometry>
        </mxCell>
        <mxCell id="S92pzV4RPVKKhVK4Yw1S-27" value="start multipart upload" style="html=1;verticalAlign=bottom;endArrow=block;curved=0;rounded=0;entryX=0;entryY=0;entryDx=0;entryDy=5;" edge="1" parent="1" source="S92pzV4RPVKKhVK4Yw1S-37" target="S92pzV4RPVKKhVK4Yw1S-24">
          <mxGeometry relative="1" as="geometry">
            <mxPoint x="180" y="292" as="sourcePoint" />
          </mxGeometry>
        </mxCell>
        <mxCell id="S92pzV4RPVKKhVK4Yw1S-29" value="store metadata" style="html=1;verticalAlign=bottom;endArrow=block;curved=0;rounded=0;entryX=0;entryY=0;entryDx=0;entryDy=5;" edge="1" parent="1" source="S92pzV4RPVKKhVK4Yw1S-37" target="S92pzV4RPVKKhVK4Yw1S-25">
          <mxGeometry relative="1" as="geometry">
            <mxPoint x="170" y="345" as="sourcePoint" />
          </mxGeometry>
        </mxCell>
        <mxCell id="S92pzV4RPVKKhVK4Yw1S-30" value="callback" style="html=1;verticalAlign=bottom;endArrow=open;dashed=1;endSize=8;curved=0;rounded=0;exitX=0;exitY=1;exitDx=0;exitDy=-5;" edge="1" parent="1" source="S92pzV4RPVKKhVK4Yw1S-25" target="S92pzV4RPVKKhVK4Yw1S-37">
          <mxGeometry relative="1" as="geometry">
            <mxPoint x="180" y="368" as="targetPoint" />
          </mxGeometry>
        </mxCell>
        <mxCell id="S92pzV4RPVKKhVK4Yw1S-49" value="" style="html=1;points=[[0,0,0,0,5],[0,1,0,0,-5],[1,0,0,0,5],[1,1,0,0,-5]];perimeter=orthogonalPerimeter;outlineConnect=0;targetShapes=umlLifeline;portConstraint=eastwest;newEdgeStyle={&quot;curved&quot;:0,&quot;rounded&quot;:0};" vertex="1" parent="1">
          <mxGeometry x="165.5" y="420" width="10" height="50" as="geometry" />
        </mxCell>
        <mxCell id="S92pzV4RPVKKhVK4Yw1S-50" value="success &amp;lt;upload id&amp;gt;" style="html=1;verticalAlign=bottom;endArrow=open;dashed=1;endSize=8;curved=0;rounded=0;exitX=0;exitY=1;exitDx=0;exitDy=-5;" edge="1" parent="1">
          <mxGeometry relative="1" as="geometry">
            <mxPoint x="44.5" y="468.5" as="targetPoint" />
            <mxPoint x="165.5" y="467.9999999999999" as="sourcePoint" />
          </mxGeometry>
        </mxCell>
        <mxCell id="S92pzV4RPVKKhVK4Yw1S-51" value="" style="html=1;points=[[0,0,0,0,5],[0,1,0,0,-5],[1,0,0,0,5],[1,1,0,0,-5]];perimeter=orthogonalPerimeter;outlineConnect=0;targetShapes=umlLifeline;portConstraint=eastwest;newEdgeStyle={&quot;curved&quot;:0,&quot;rounded&quot;:0};" vertex="1" parent="1">
          <mxGeometry x="400.5" y="428.5" width="10" height="33" as="geometry" />
        </mxCell>
        <mxCell id="S92pzV4RPVKKhVK4Yw1S-53" value="upload part&lt;br&gt;&amp;lt;part N, upload id&amp;gt;" style="html=1;verticalAlign=bottom;endArrow=block;curved=0;rounded=0;entryX=0;entryY=0;entryDx=0;entryDy=5;" edge="1" parent="1" target="S92pzV4RPVKKhVK4Yw1S-49">
          <mxGeometry relative="1" as="geometry">
            <mxPoint x="44.5" y="425.5" as="sourcePoint" />
          </mxGeometry>
        </mxCell>
        <mxCell id="S92pzV4RPVKKhVK4Yw1S-54" value="callback" style="html=1;verticalAlign=bottom;endArrow=open;dashed=1;endSize=8;curved=0;rounded=0;exitX=0;exitY=1;exitDx=0;exitDy=-5;" edge="1" parent="1" source="S92pzV4RPVKKhVK4Yw1S-51" target="S92pzV4RPVKKhVK4Yw1S-49">
          <mxGeometry relative="1" as="geometry">
            <mxPoint x="180.5" y="456.5" as="targetPoint" />
          </mxGeometry>
        </mxCell>
        <mxCell id="S92pzV4RPVKKhVK4Yw1S-55" value="upload part" style="html=1;verticalAlign=bottom;endArrow=block;curved=0;rounded=0;entryX=0;entryY=0;entryDx=0;entryDy=5;" edge="1" parent="1" source="S92pzV4RPVKKhVK4Yw1S-49" target="S92pzV4RPVKKhVK4Yw1S-51">
          <mxGeometry relative="1" as="geometry">
            <mxPoint x="180.5" y="433.5" as="sourcePoint" />
          </mxGeometry>
        </mxCell>
        <mxCell id="S92pzV4RPVKKhVK4Yw1S-58" value="parallel" style="shape=umlFrame;whiteSpace=wrap;html=1;pointerEvents=0;" vertex="1" parent="1">
          <mxGeometry x="-20" y="390" width="520" height="100" as="geometry" />
        </mxCell>
        <mxCell id="S92pzV4RPVKKhVK4Yw1S-59" value="" style="html=1;points=[[0,0,0,0,5],[0,1,0,0,-5],[1,0,0,0,5],[1,1,0,0,-5]];perimeter=orthogonalPerimeter;outlineConnect=0;targetShapes=umlLifeline;portConstraint=eastwest;newEdgeStyle={&quot;curved&quot;:0,&quot;rounded&quot;:0};" vertex="1" parent="1">
          <mxGeometry x="165.5" y="525" width="10" height="50" as="geometry" />
        </mxCell>
        <mxCell id="S92pzV4RPVKKhVK4Yw1S-60" value="success &amp;lt;image id&amp;gt;" style="html=1;verticalAlign=bottom;endArrow=open;dashed=1;endSize=8;curved=0;rounded=0;exitX=0;exitY=1;exitDx=0;exitDy=-5;" edge="1" parent="1">
          <mxGeometry relative="1" as="geometry">
            <mxPoint x="44.5" y="573.5" as="targetPoint" />
            <mxPoint x="165.5" y="572.9999999999999" as="sourcePoint" />
          </mxGeometry>
        </mxCell>
        <mxCell id="S92pzV4RPVKKhVK4Yw1S-61" value="" style="html=1;points=[[0,0,0,0,5],[0,1,0,0,-5],[1,0,0,0,5],[1,1,0,0,-5]];perimeter=orthogonalPerimeter;outlineConnect=0;targetShapes=umlLifeline;portConstraint=eastwest;newEdgeStyle={&quot;curved&quot;:0,&quot;rounded&quot;:0};" vertex="1" parent="1">
          <mxGeometry x="400.5" y="533.5" width="10" height="33" as="geometry" />
        </mxCell>
        <mxCell id="S92pzV4RPVKKhVK4Yw1S-62" value="compete upload" style="html=1;verticalAlign=bottom;endArrow=block;curved=0;rounded=0;entryX=0;entryY=0;entryDx=0;entryDy=5;" edge="1" parent="1" target="S92pzV4RPVKKhVK4Yw1S-59">
          <mxGeometry relative="1" as="geometry">
            <mxPoint x="44.5" y="530.5" as="sourcePoint" />
          </mxGeometry>
        </mxCell>
        <mxCell id="S92pzV4RPVKKhVK4Yw1S-63" value="callback" style="html=1;verticalAlign=bottom;endArrow=open;dashed=1;endSize=8;curved=0;rounded=0;exitX=0;exitY=1;exitDx=0;exitDy=-5;" edge="1" parent="1" source="S92pzV4RPVKKhVK4Yw1S-61" target="S92pzV4RPVKKhVK4Yw1S-59">
          <mxGeometry relative="1" as="geometry">
            <mxPoint x="180.5" y="561.5" as="targetPoint" />
          </mxGeometry>
        </mxCell>
        <mxCell id="S92pzV4RPVKKhVK4Yw1S-64" value="complete multipart upload" style="html=1;verticalAlign=bottom;endArrow=block;curved=0;rounded=0;entryX=0;entryY=0;entryDx=0;entryDy=5;" edge="1" parent="1" source="S92pzV4RPVKKhVK4Yw1S-59" target="S92pzV4RPVKKhVK4Yw1S-61">
          <mxGeometry relative="1" as="geometry">
            <mxPoint x="180.5" y="538.5" as="sourcePoint" />
          </mxGeometry>
        </mxCell>
        <mxCell id="S92pzV4RPVKKhVK4Yw1S-65" value="" style="html=1;points=[[0,0,0,0,5],[0,1,0,0,-5],[1,0,0,0,5],[1,1,0,0,-5]];perimeter=orthogonalPerimeter;outlineConnect=0;targetShapes=umlLifeline;portConstraint=eastwest;newEdgeStyle={&quot;curved&quot;:0,&quot;rounded&quot;:0};" vertex="1" parent="1">
          <mxGeometry x="165.5" y="645" width="10" height="75" as="geometry" />
        </mxCell>
        <mxCell id="S92pzV4RPVKKhVK4Yw1S-66" value="success &amp;lt;image id&amp;gt;" style="html=1;verticalAlign=bottom;endArrow=open;dashed=1;endSize=8;curved=0;rounded=0;exitX=0;exitY=1;exitDx=0;exitDy=-5;" edge="1" parent="1">
          <mxGeometry relative="1" as="geometry">
            <mxPoint x="44.5" y="714.5" as="targetPoint" />
            <mxPoint x="165.5" y="713.9999999999999" as="sourcePoint" />
          </mxGeometry>
        </mxCell>
        <mxCell id="S92pzV4RPVKKhVK4Yw1S-67" value="process image,&lt;br&gt;&amp;lt;image id, instructions&amp;gt;" style="html=1;verticalAlign=bottom;endArrow=block;curved=0;rounded=0;entryX=0;entryY=0;entryDx=0;entryDy=5;" edge="1" parent="1" target="S92pzV4RPVKKhVK4Yw1S-65">
          <mxGeometry relative="1" as="geometry">
            <mxPoint x="44.5" y="650.5" as="sourcePoint" />
          </mxGeometry>
        </mxCell>
        <mxCell id="S92pzV4RPVKKhVK4Yw1S-69" value="callback" style="html=1;verticalAlign=bottom;endArrow=open;dashed=1;endSize=8;curved=0;rounded=0;exitX=0;exitY=1;exitDx=0;exitDy=-5;" edge="1" parent="1" source="S92pzV4RPVKKhVK4Yw1S-68">
          <mxGeometry relative="1" as="geometry">
            <mxPoint x="175.5" y="698.5" as="targetPoint" />
          </mxGeometry>
        </mxCell>
        <mxCell id="S92pzV4RPVKKhVK4Yw1S-70" value="push message to queue &amp;lt;image id, instructions&amp;gt;" style="html=1;verticalAlign=bottom;endArrow=block;curved=0;rounded=0;entryX=0;entryY=0;entryDx=0;entryDy=5;" edge="1" parent="1" target="S92pzV4RPVKKhVK4Yw1S-68">
          <mxGeometry relative="1" as="geometry">
            <mxPoint x="175.5" y="675.5" as="sourcePoint" />
          </mxGeometry>
        </mxCell>
        <mxCell id="S92pzV4RPVKKhVK4Yw1S-6" value="Processing Cluster" style="shape=umlLifeline;perimeter=lifelinePerimeter;whiteSpace=wrap;html=1;container=0;dropTarget=0;collapsible=0;recursiveResize=0;outlineConnect=0;portConstraint=eastwest;newEdgeStyle={&quot;edgeStyle&quot;:&quot;elbowEdgeStyle&quot;,&quot;elbow&quot;:&quot;vertical&quot;,&quot;curved&quot;:0,&quot;rounded&quot;:0};" vertex="1" parent="1">
          <mxGeometry x="720" y="40" width="100" height="1010" as="geometry" />
        </mxCell>
        <mxCell id="S92pzV4RPVKKhVK4Yw1S-71" value="" style="html=1;points=[[0,0,0,0,5],[0,1,0,0,-5],[1,0,0,0,5],[1,1,0,0,-5]];perimeter=orthogonalPerimeter;outlineConnect=0;targetShapes=umlLifeline;portConstraint=eastwest;newEdgeStyle={&quot;curved&quot;:0,&quot;rounded&quot;:0};" vertex="1" parent="S92pzV4RPVKKhVK4Yw1S-6">
          <mxGeometry x="45" y="663" width="10" height="337" as="geometry" />
        </mxCell>
        <mxCell id="S92pzV4RPVKKhVK4Yw1S-85" value="" style="html=1;points=[[0,0,0,0,5],[0,1,0,0,-5],[1,0,0,0,5],[1,1,0,0,-5]];perimeter=orthogonalPerimeter;outlineConnect=0;targetShapes=umlLifeline;portConstraint=eastwest;newEdgeStyle={&quot;curved&quot;:0,&quot;rounded&quot;:0};" vertex="1" parent="S92pzV4RPVKKhVK4Yw1S-6">
          <mxGeometry x="50" y="825" width="10" height="40" as="geometry" />
        </mxCell>
        <mxCell id="S92pzV4RPVKKhVK4Yw1S-86" value="process&amp;nbsp;&lt;br&gt;image" style="html=1;align=left;spacingLeft=2;endArrow=block;rounded=0;edgeStyle=orthogonalEdgeStyle;curved=0;rounded=0;" edge="1" target="S92pzV4RPVKKhVK4Yw1S-85" parent="S92pzV4RPVKKhVK4Yw1S-6">
          <mxGeometry relative="1" as="geometry">
            <mxPoint x="55" y="805" as="sourcePoint" />
            <Array as="points">
              <mxPoint x="85" y="835" />
            </Array>
          </mxGeometry>
        </mxCell>
        <mxCell id="S92pzV4RPVKKhVK4Yw1S-79" value="return message" style="html=1;verticalAlign=bottom;endArrow=open;dashed=1;endSize=8;curved=0;rounded=0;exitX=1;exitY=1;exitDx=0;exitDy=-5;" edge="1" source="S92pzV4RPVKKhVK4Yw1S-77" parent="1" target="S92pzV4RPVKKhVK4Yw1S-71">
          <mxGeometry relative="1" as="geometry">
            <mxPoint x="725" y="795" as="targetPoint" />
          </mxGeometry>
        </mxCell>
        <mxCell id="S92pzV4RPVKKhVK4Yw1S-78" value="get message" style="html=1;verticalAlign=bottom;endArrow=block;curved=0;rounded=0;entryX=1;entryY=0;entryDx=0;entryDy=5;" edge="1" target="S92pzV4RPVKKhVK4Yw1S-77" parent="1" source="S92pzV4RPVKKhVK4Yw1S-71">
          <mxGeometry relative="1" as="geometry">
            <mxPoint x="725" y="725" as="sourcePoint" />
          </mxGeometry>
        </mxCell>
        <mxCell id="S92pzV4RPVKKhVK4Yw1S-82" value="get image &amp;lt;image id&amp;gt;" style="html=1;verticalAlign=bottom;endArrow=block;curved=0;rounded=0;entryX=1;entryY=0;entryDx=0;entryDy=5;" edge="1" target="S92pzV4RPVKKhVK4Yw1S-81" parent="1" source="S92pzV4RPVKKhVK4Yw1S-71">
          <mxGeometry relative="1" as="geometry">
            <mxPoint x="760" y="795" as="sourcePoint" />
          </mxGeometry>
        </mxCell>
        <mxCell id="S92pzV4RPVKKhVK4Yw1S-83" value="return image" style="html=1;verticalAlign=bottom;endArrow=open;dashed=1;endSize=8;curved=0;rounded=0;exitX=1;exitY=1;exitDx=0;exitDy=-5;" edge="1" source="S92pzV4RPVKKhVK4Yw1S-81" parent="1" target="S92pzV4RPVKKhVK4Yw1S-71">
          <mxGeometry relative="1" as="geometry">
            <mxPoint x="481" y="865" as="targetPoint" />
          </mxGeometry>
        </mxCell>
        <mxCell id="S92pzV4RPVKKhVK4Yw1S-95" value="" style="html=1;points=[[0,0,0,0,5],[0,1,0,0,-5],[1,0,0,0,5],[1,1,0,0,-5]];perimeter=orthogonalPerimeter;outlineConnect=0;targetShapes=umlLifeline;portConstraint=eastwest;newEdgeStyle={&quot;curved&quot;:0,&quot;rounded&quot;:0};" vertex="1" parent="1">
          <mxGeometry x="645" y="976" width="10" height="50" as="geometry" />
        </mxCell>
        <mxCell id="S92pzV4RPVKKhVK4Yw1S-96" value="success" style="html=1;verticalAlign=bottom;endArrow=open;dashed=1;endSize=8;curved=0;rounded=0;exitX=1;exitY=1;exitDx=0;exitDy=-5;" edge="1" parent="1" source="S92pzV4RPVKKhVK4Yw1S-95">
          <mxGeometry relative="1" as="geometry">
            <mxPoint x="765" y="1021" as="targetPoint" />
          </mxGeometry>
        </mxCell>
        <mxCell id="S92pzV4RPVKKhVK4Yw1S-97" value="delete message" style="html=1;verticalAlign=bottom;endArrow=block;curved=0;rounded=0;entryX=1;entryY=0;entryDx=0;entryDy=5;" edge="1" parent="1" target="S92pzV4RPVKKhVK4Yw1S-95">
          <mxGeometry x="0.0043" relative="1" as="geometry">
            <mxPoint x="765" y="981" as="sourcePoint" />
            <mxPoint as="offset" />
          </mxGeometry>
        </mxCell>
        <mxCell id="S92pzV4RPVKKhVK4Yw1S-99" value="Image processing &lt;br&gt;(crop, resize, &lt;br&gt;watermark)" style="text;html=1;align=center;verticalAlign=middle;resizable=0;points=[];autosize=1;strokeColor=none;fillColor=none;" vertex="1" parent="1">
          <mxGeometry x="-200" y="799.5" width="120" height="60" as="geometry" />
        </mxCell>
      </root>
    </mxGraphModel>
  </diagram>
</mxfile>
